<svg xmlns="http://www.w3.org/2000/svg" viewBox="0 0 256 256" role="img" aria-label="PriceRadar"><defs><linearGradient id="bg" x1="0" y1="0" x2="1" y2="1"><stop offset="0" stop-color="#17131f"/><stop offset="1" stop-color="#0a0d12"/></linearGradient><linearGradient id="g" x1="0" y1="0" x2="1" y2="1"><stop offset="0" stop-color="#74ffbd"/><stop offset="1" stop-color="#19d97f"/></linearGradient><linearGradient id="p" x1="0" y1="0" x2="0" y2="1"><stop offset="0" stop-color="#ffffff"/><stop offset="1" stop-color="#bdb8d4"/></linearGradient><filter id="glow"><feGaussianBlur stdDeviation="3" result="b"/><feMerge><feMergeNode in="b"/><feMergeNode in="SourceGraphic"/></feMerge></filter></defs><rect width="256" height="256" rx="52" fill="url(#bg)"/><circle cx="128" cy="128" r="104" fill="none" stroke="#2de69a" stroke-width="5" opacity=".7"/><circle cx="128" cy="128" r="77" fill="none" stroke="#8173ad" stroke-width="4" opacity=".55"/><circle cx="128" cy="128" r="51" fill="none" stroke="#8173ad" stroke-width="3" opacity=".42"/><path d="M128 24a104 104 0 0 1 79 36l-61 67z" fill="#25e28f" opacity=".18"/><circle cx="176" cy="70" r="8" fill="#6cffb2" filter="url(#glow)"/><path d="M58 72h50c30 0 47 16 47 42 0 26-17 42-47 42H83v38H58zm25 21v42h22c15 0 24-8 24-21 0-13-9-21-24-21z" fill="url(#p)"/><path d="M124 72h48c28 0 45 15 45 39 0 16-8 28-23 34l31 49h-31l-28-44h-17v44h-25zm25 21v36h20c14 0 22-7 22-18 0-11-8-18-22-18z" fill="url(#p)"/><path d="M187 160h17v14h14l-23 24-23-24h15z" fill="url(#g)" filter="url(#glow)"/><rect x="92" y="113" width="7" height="22" rx="3.5" fill="url(#g)"/><rect x="102" y="118" width="7" height="17" rx="3.5" fill="url(#g)"/><rect x="112" y="123" width="7" height="12" rx="3.5" fill="url(#g)"/></svg>